<svg width="412" height="366" viewBox="0 0 412 366" fill="none" xmlns="http://www.w3.org/2000/svg">
<path d="M206 257C172.916 257 146 230.084 146 197C146 163.916 172.916 137 206 137C239.084 137 266 163.916 266 197C266 230.084 239.084 257 206 257ZM206 157C183.944 157 166 174.943 166 197C166 219.056 183.944 237 206 237C228.056 237 246 219.056 246 197C246 174.943 228.056 157 206 157Z" fill="black"/>
<path d="M290 365.503H123C105.028 365.503 90.366 351.062 90.007 333.175L71.162 181.051H32.088C20.3 181.051 9.88201 174.878 4.22001 164.539C-1.44299 154.2 -1.03299 142.099 5.31401 132.165C6.01601 131.067 6.92601 130.117 7.99201 129.367L179.556 8.85601C187.342 3.38701 196.486 0.497009 206 0.497009C215.514 0.497009 224.659 3.38801 232.444 8.85601L404.007 129.367C405.073 130.116 405.984 131.067 406.685 132.165C413.034 142.098 413.443 154.2 407.781 164.539C402.119 174.878 391.701 181.051 379.913 181.051H341.84L322.995 333.175C322.635 351.062 307.972 365.503 290 365.503ZM21.355 144.423C19.813 147.782 19.938 151.604 21.761 154.933C23.859 158.764 27.72 161.051 32.088 161.051H80C85.047 161.051 89.304 164.812 89.924 169.822L109.924 331.274C109.974 331.682 110 332.092 110 332.503C110 339.671 115.832 345.503 123 345.503H290C297.168 345.503 303 339.671 303 332.503C303 332.092 303.025 331.682 303.076 331.274L323.076 169.822C323.696 164.812 327.952 161.051 333 161.051H379.911C384.279 161.051 388.14 158.763 390.237 154.932C392.06 151.604 392.185 147.783 390.643 144.423L220.947 25.223C216.547 22.132 211.378 20.497 205.999 20.497C200.621 20.497 195.452 22.132 191.051 25.223L21.355 144.423Z" fill="black"/>
</svg>
