<svg width="464" height="330" viewBox="0 0 464 330" fill="none" xmlns="http://www.w3.org/2000/svg">
<path d="M419.5 330H44.5C19.962 330 0 310.037 0 285.5V44.5C0 19.962 19.962 0 44.5 0H419.5C444.037 0 464 19.962 464 44.5V285.5C464 310.037 444.037 330 419.5 330ZM44.5 20C30.99 20 20 30.991 20 44.5V285.5C20 299.01 30.99 310 44.5 310H419.5C433.01 310 444 299.01 444 285.5V44.5C444 30.991 433.01 20 419.5 20H44.5Z" fill="black"/>
<path d="M234 219C231.521 219 229.043 218.083 227.112 216.25L27.112 26.25C23.108 22.446 22.946 16.117 26.75 12.112C30.554 8.109 36.884 7.947 40.888 11.75L234 195.207L427.112 11.75C431.117 7.946 437.447 8.109 441.25 12.112C445.054 16.116 444.892 22.446 440.888 26.25L240.888 216.25C238.958 218.083 236.479 219 234 219Z" fill="black"/>
</svg>
