<svg width="378" height="370" viewBox="0 0 378 370" fill="none" xmlns="http://www.w3.org/2000/svg">
<path d="M188.99 369.487C155.906 369.487 128.99 342.571 128.99 309.487C128.99 303.965 133.467 299.487 138.99 299.487H238.99C244.512 299.487 248.99 303.965 248.99 309.487C248.99 342.571 222.074 369.487 188.99 369.487ZM150.255 319.487C154.706 336.72 170.385 349.487 188.989 349.487C207.594 349.487 223.273 336.72 227.724 319.487H150.255Z" fill="black"/>
<path d="M367.958 319.487C367.95 319.487 367.945 319.488 367.937 319.487H10.042C5.72301 319.487 1.89201 316.715 0.543009 312.612C-0.806991 308.509 0.630013 304.004 4.10601 301.44C24.488 286.403 35.501 256.984 30.292 231.489C28.022 220.379 26.885 168.406 26.885 162.592C26.885 89.434 76.172 25.066 146.741 6.062C174.217 -1.337 203.765 -1.336 231.24 6.062C301.809 25.066 351.096 89.434 351.096 162.592C351.096 168.406 349.958 220.375 347.689 231.488C342.478 256.996 357.09 289.608 373.241 300.995C376.073 302.761 377.959 305.903 377.959 309.487C377.958 315.01 373.48 319.487 367.958 319.487ZM33.762 299.487H344.672C330.747 279.121 323.419 250.364 328.093 227.485C329.71 219.568 331.096 172.124 331.096 162.592C331.096 98.458 287.895 42.031 226.038 25.374C201.957 18.889 176.027 18.888 151.941 25.374C90.085 42.032 46.884 98.458 46.884 162.592C46.884 172.125 48.269 219.57 49.886 227.485C54.958 252.309 48.487 279.221 33.762 299.487Z" fill="black"/>
</svg>
