<svg width="378" height="378" viewBox="0 0 378 378" fill="none" xmlns="http://www.w3.org/2000/svg">
<path d="M169.965 340.005C124.556 340.005 81.865 322.322 49.757 290.214C-16.526 223.931 -16.526 116.08 49.757 49.797C81.866 17.689 124.557 0.00499725 169.965 0.00499725C215.373 0.00499725 258.064 17.689 290.173 49.797C356.455 116.08 356.455 223.931 290.173 290.214C258.064 322.322 215.374 340.005 169.965 340.005ZM169.965 20.005C129.899 20.005 92.23 35.608 63.899 63.94C5.414 122.424 5.414 217.586 63.899 276.072C92.23 304.403 129.899 320.006 169.965 320.006C210.031 320.006 247.7 304.403 276.031 276.072C334.515 217.587 334.515 122.425 276.031 63.94C247.7 35.607 210.031 20.005 169.965 20.005Z" fill="black"/>
<path d="M367.955 377.995C365.395 377.995 362.837 377.018 360.884 375.066L276.031 290.213C272.126 286.308 272.126 279.976 276.031 276.07C279.937 272.166 286.267 272.166 290.174 276.07L375.027 360.923C378.932 364.828 378.932 371.16 375.027 375.066C373.073 377.019 370.515 377.995 367.955 377.995Z" fill="black"/>
</svg>
